# xmcd
#
# Track frame offsets:
#	150
#	20669
#	41457
#	59385
#	79033
#	96053
#	114580
#	138306
#
# Disc length: 2141 seconds
#
# Revision: 1
# Processed by: cddbd v1.5.2PL0 Copyright (c) Steve Scherf et al.
# Submitted via: audiograbber 1.83.01
#
DISCID=61085b08
DTITLE=Eddie Santiago - Despues del Silencio
DYEAR=2004
DGENRE=Latin
TTITLE0=1. Loco Por Tu Amor
TTITLE1=2. Que Duro Me Pego Tu Amor
TTITLE2=3. No Me Hables Mal de Ella
TTITLE3=4. Falsa
TTITLE4=5. Todavia Hay Swing
TTITLE5=6. Te Deje Escapar
TTITLE6=7. Lejos de Ti
TTITLE7=8. Llover Sobre Mojado
EXTD=
EXTT0=
EXTT1=
EXTT2=
EXTT3=
EXTT4=
EXTT5=
EXTT6=
EXTT7=
PLAYORDER=
